# xmcd
#
# Track frame offsets: 
#        150
#        11477
#        26480
#        39872
#        51187
#        63942
#        77842
#        87440
#        101472
#        113317
#        126167
#        140197
#        152520
#        167992
#        182632
#        195580
#
# Disc length: 2801 seconds
#
# Revision: 2
# Processed by: cddbd v1.5PL3 Copyright (c) Steve Scherf et al.
# Submitted via: ExactAudioCopy v0.95a5
#
DISCID=c60aef10
DTITLE=Jo Stafford - Jo Stafford Best Collection
DYEAR=1900
DGENRE=
TTITLE0=On london bridge
TTITLE1=Stardust
TTITLE2=Jambalaya
TTITLE3=Tennessee waltz
TTITLE4=The lady is a tramp
TTITLE5=Autumn leaves
TTITLE6=Hawaiian war chant
TTITLE7=You belong to me
TTITLE8=Keep it a secret
TTITLE9=Almost like being in love
TTITLE10=A foggy day
TTITLE11=Make love to me
TTITLE12=These foolish things
TTITLE13=It is no secret
TTITLE14=Shrimp boats
TTITLE15=But not for me
EXTD=
EXTT0=
EXTT1=
EXTT2=
EXTT3=
EXTT4=
EXTT5=
EXTT6=
EXTT7=
EXTT8=
EXTT9=
EXTT10=
EXTT11=
EXTT12=
EXTT13=
EXTT14=
EXTT15=
PLAYORDER=
